<svg id="Layer_1" data-name="Layer 1" xmlns="http://www.w3.org/2000/svg" xmlns:xlink="http://www.w3.org/1999/xlink" viewBox="0 0 506.5 215.31"><defs><style>.cls-1{fill:#ccc;}.cls-2{fill:#999;}.cls-3{fill:url(#radial-gradient);}.cls-4{fill:url(#radial-gradient-2);}.cls-5{fill:url(#linear-gradient);}.cls-6{fill:url(#radial-gradient-4);}.cls-7{fill:url(#radial-gradient-5);}.cls-8{fill:url(#linear-gradient-2);}</style><radialGradient id="radial-gradient" cx="262.27" cy="527.43" r="12.68" gradientTransform="matrix(0.98, 0.2, 0.18, -0.88, 124.1, 519.52)" gradientUnits="userSpaceOnUse"><stop offset="0" stop-color="#fff"/><stop offset="0.1" stop-color="#fbfbfb"/><stop offset="0.21" stop-color="#eee"/><stop offset="0.32" stop-color="#dadada"/><stop offset="0.43" stop-color="#bdbdbd"/><stop offset="0.54" stop-color="#979797"/><stop offset="0.65" stop-color="#696969"/><stop offset="0.76" stop-color="#343434"/><stop offset="0.86"/></radialGradient><radialGradient id="radial-gradient-2" cx="262.27" cy="527.43" r="12.68" gradientTransform="matrix(0.98, 0.2, 0.18, -0.88, 124.1, 519.52)" gradientUnits="userSpaceOnUse"><stop offset="0" stop-color="#fff"/><stop offset="0.12" stop-color="#fbfbfb"/><stop offset="0.25" stop-color="#eee"/><stop offset="0.37" stop-color="#dadada"/><stop offset="0.5" stop-color="#bdbdbd"/><stop offset="0.63" stop-color="#979797"/><stop offset="0.76" stop-color="#696969"/><stop offset="0.89" stop-color="#343434"/><stop offset="1"/></radialGradient><linearGradient id="linear-gradient" x1="276.34" y1="721.02" x2="276.34" y2="723.24" gradientTransform="matrix(0.71, 0.71, 0.71, -0.71, -228.4, 422.59)" gradientUnits="userSpaceOnUse"><stop offset="0.04" stop-color="#434041"/><stop offset="0.05" stop-color="#464344"/><stop offset="0.23" stop-color="#7b7a7d"/><stop offset="0.38" stop-color="#a2a2a7"/><stop offset="0.49" stop-color="#babbc1"/><stop offset="0.56" stop-color="#c3c4ca"/><stop offset="0.63" stop-color="#bfc0c6"/><stop offset="0.69" stop-color="#b3b4b9"/><stop offset="0.76" stop-color="#9fa0a5"/><stop offset="0.83" stop-color="#838488"/><stop offset="0.9" stop-color="#5f6062"/><stop offset="0.96" stop-color="#343435"/><stop offset="1" stop-color="#191919"/></linearGradient><radialGradient id="radial-gradient-4" cx="-178.36" cy="426.04" r="12.68" xlink:href="#radial-gradient"/><radialGradient id="radial-gradient-5" cx="-178.36" cy="426.04" r="12.68" xlink:href="#radial-gradient-2"/><linearGradient id="linear-gradient-2" x1="-41.86" y1="402.82" x2="-41.86" y2="405.04" xlink:href="#linear-gradient"/></defs><title>sc-logo-2019</title><path class="cls-1" d="M253.25,214.31c-58.61,0-113.31-17.51-148.88-32.2C65.8,166.18,40.78,150,40.53,149.88l-3.14-1.95C21.18,137.88,1,125.37,1,107.66S21.18,77.44,37.39,67.39l3.13-2c.26-.17,25.28-16.31,63.85-32.24C139.94,18.51,194.64,1,253.25,1S366.56,18.51,402.13,33.2C440.7,49.13,465.72,65.27,466,65.43l3.14,2c16.21,10,36.39,22.55,36.39,40.27s-20.18,30.22-36.39,40.27L466,149.87c-.26.17-25.28,16.31-63.85,32.24C366.56,196.8,311.86,214.31,253.25,214.31ZM29.11,124a2.36,2.36,0,0,0-2.21,1.49,2.32,2.32,0,0,0,.57,2.56c6.94,6.6,16.16,12,24.29,16.83l2.87,1.7c.91.56,93.83,57.23,198.62,57.23S451,147.14,451.88,146.57l2.85-1.69c8.14-4.8,17.37-10.24,24.32-16.85a2.35,2.35,0,0,0,.57-2.57,2.32,2.32,0,0,0-2.17-1.47h-.61c-8.36,0-15.16-7.18-15.16-16s6.8-16,15.16-16c.39,0,.78,0,1.16,0h.2a2.36,2.36,0,0,0,2.18-1.47,2.3,2.3,0,0,0-.52-2.53c-7-7-16.63-12.62-25.11-17.62l-2.88-1.71C451,68.17,358,11.5,253.25,11.5S55.54,68.17,54.62,68.74l-2.89,1.71c-8.45,5-18,10.64-25,17.57a2.33,2.33,0,0,0,1.62,4h.13l.73,0c8.36,0,15.16,7.18,15.16,16s-6.8,16-15.16,16Z"/><path class="cls-2" d="M253.25,2c58.43,0,113,17.46,148.46,32.11,38.49,15.89,63.47,32,63.74,32.18l3.14,1.95c16,9.91,35.91,22.26,35.91,39.42s-19.91,29.5-35.91,39.42l-3.17,2c-.24.16-25.15,16.23-63.62,32.13-35.5,14.66-90.09,32.14-148.55,32.14s-113-17.46-148.46-32.11C66.3,165.31,41.32,149.2,41.05,149l-3.14-1.94C21.91,137.16,2,124.82,2,107.66S21.91,78.15,37.91,68.24l3.17-2c.24-.16,25.15-16.23,63.62-32.12C140.2,19.48,194.79,2,253.25,2M28.3,93h.18l.68,0c7.81,0,14.16,6.73,14.16,15S37,123,29.12,123A3.36,3.36,0,0,0,26,125.12a3.3,3.3,0,0,0,.81,3.65c7,6.68,16.3,12.15,24.48,17l2.83,1.68c.24.14,23.67,14.53,59.73,28.71,33.29,13.08,84.51,28.68,139.43,28.68s106.14-15.6,139.43-28.68c36.06-14.18,59.49-28.57,59.7-28.69l2.86-1.69c8.18-4.83,17.46-10.31,24.5-17a3.34,3.34,0,0,0-2.29-5.76h-.61c-7.81,0-14.16-6.73-14.16-15S469,93,476.84,93c.36,0,.72,0,1.08,0l.28,0A3.35,3.35,0,0,0,481.3,91a3.3,3.3,0,0,0-.74-3.62c-7.11-7-16.78-12.74-25.3-17.77l-2.85-1.69c-.24-.14-23.67-14.53-59.73-28.7C359.39,26.1,308.17,10.5,253.25,10.5S147.11,26.1,113.82,39.19C77.76,53.36,54.33,67.75,54.12,67.88l-2.89,1.71c-8.51,5-18.15,10.7-25.25,17.72A3.34,3.34,0,0,0,28.3,93m225-93C139.44,0,40,64.59,40,64.59,23.58,74.85,0,88.18,0,107.66s23.58,32.81,40,43.06c0,0,99.45,64.59,213.26,64.59s213.26-64.59,213.26-64.59c16.41-10.25,40-23.58,40-43.06s-23.58-32.81-40-43.07c0,0-99.45-64.59-213.26-64.59ZM28.3,91a1.34,1.34,0,0,1-.92-2.29c7.75-7.66,18.89-13.86,27.76-19.14,0,0,92.39-57.09,198.11-57.09S451.36,69.59,451.36,69.59c8.89,5.29,20,11.51,27.8,19.18a1.35,1.35,0,0,1-1,2.29h-.12c-.41,0-.82,0-1.24,0-8.92,0-16.16,7.61-16.16,17s7.24,17,16.16,17h.61a1.34,1.34,0,0,1,.91,2.32c-7.71,7.32-18.41,13.3-27,18.41,0,0-92.39,57.09-198.11,57.09S55.14,145.72,55.14,145.72c-8.58-5.11-19.28-11.08-27-18.4a1.35,1.35,0,0,1,1-2.32h0c8.92,0,16.16-7.61,16.16-17S38.08,91,29.16,91l-.78,0Z"/><path d="M451.36,69.59S359,12.5,253.25,12.5,55.14,69.59,55.14,69.59c-8.87,5.28-20,11.48-27.76,19.14a1.34,1.34,0,0,0,1,2.29l.78,0c8.92,0,16.16,7.61,16.16,17s-7.24,17-16.16,17h0a1.35,1.35,0,0,0-1,2.32c7.71,7.32,18.41,13.29,27,18.4,0,0,92.39,57.09,198.11,57.09s198.11-57.09,198.11-57.09c8.59-5.11,19.29-11.09,27-18.41a1.34,1.34,0,0,0-1-2.32h-.56c-8.92,0-16.16-7.61-16.16-17s7.24-17,16.16-17c.42,0,.83,0,1.24,0a1.34,1.34,0,0,0,1.08-2.28C471.4,81.1,460.25,74.88,451.36,69.59Z"/><path class="cls-1" d="M94.54,147.41a8.49,8.49,0,0,1-3.79-.75l-2.3-1.17a91.54,91.54,0,0,1-14.6-8.61c-4-3-6.68-6.18-4.8-19.56l9.67,5.44c-.58,5.28.11,6.13,3.67,8.13l1,.59.09.05c2.06,1.18,3.3,1.9,6.18,3.37a6.47,6.47,0,0,0,3,.72c2.88,0,6-2,6-7.52h0s0-7.36,0-8.59v-.32c0-2.91,0-7.29-7.34-9.17-4-1-16-4.06-16.86-4.42-6-2.9-6-6.32-6-13.83,0-9.8,2.62-11.52,7.38-14.64,1.34-.87,9.59-5.86,15.39-8.93A14.9,14.9,0,0,1,98,66.46c5.89,0,9.89,4.12,11.33,11.63L98.89,81.91c-1-2.54-2.18-4.18-4.37-4.18-1.4,0-3,.67-5.3,1.84a44.53,44.53,0,0,0-8,5c-2.18,1.75-2.18,4.16-2.17,8.52v1c0,4.12,2.73,4.58,6.52,5.22a109.61,109.61,0,0,1,13,3c9.89,2.93,10.82,7.8,10.82,20v6.68c0,8.53-2.18,11.76-4.23,14.13C102.92,145.61,98.55,147.41,94.54,147.41Z"/><path class="cls-2" d="M98,67.46c5.21,0,8.7,3.44,10.17,10l-8.72,3.19c-1-2.19-2.39-3.91-4.92-3.91-1.6,0-3.32.71-5.75,1.94a46.56,46.56,0,0,0-8.17,5.11c-2.55,2.06-2.55,4.78-2.54,9.3v1c0,5,3.57,5.58,7.35,6.22a106.72,106.72,0,0,1,12.88,2.94c9.29,2.74,10.12,7.14,10.12,19v6.68c0,8.18-2.06,11.24-4,13.47-2.07,2.39-6.13,4-9.87,4a7.73,7.73,0,0,1-3.34-.64l-2.28-1.17a90.76,90.76,0,0,1-14.47-8.52c-3.67-2.76-6-5.54-4.6-17.16l7.81,4.39c-.48,5.21.53,6.37,4.24,8.45l1,.58.07,0c2.07,1.19,3.33,1.92,6.23,3.41a7.69,7.69,0,0,0,3.42.82c3.21,0,7-2.23,7-8.51,0,0,0-7.37,0-8.6v-.32c0-3,0-8.07-8.09-10.14-3.83-1-15.43-3.92-16.71-4.37-5.42-2.63-5.41-5.44-5.41-12.91,0-9.26,2.32-10.78,6.92-13.8,1.34-.87,9.55-5.83,15.32-8.88A13.8,13.8,0,0,1,98,67.46m0-2a15.82,15.82,0,0,0-7.26,1.86c-5.77,3.05-14,8-15.48,9-4.88,3.2-7.82,5.2-7.83,15.47,0,7.51,0,11.56,6.6,14.74.68.33,11.73,3.14,17,4.48,6.85,1.75,6.58,5.54,6.58,8.52,0,1.23,0,8.59,0,8.59,0,4.81-2.52,6.52-5,6.52a5.6,5.6,0,0,1-2.51-.61c-2.89-1.48-4.12-2.19-6.22-3.4-4.11-2.38-4.89-2.14-4.13-8.4l-11.51-6.47c-2.23,14.23.12,18.3,5,21.94,5.68,4.26,10.51,6.53,17,9.87a9.53,9.53,0,0,0,4.25.86c3.95,0,8.72-1.67,11.38-4.74,2.29-2.64,4.49-6.14,4.49-14.78v-6.68c0-12-.89-17.78-11.55-20.93a112.72,112.72,0,0,0-13.11-3c-4-.67-5.7-1-5.69-4.23,0-4.85-.14-7.15,1.79-8.71a45.12,45.12,0,0,1,7.82-4.88c2.13-1.08,3.65-1.73,4.85-1.73,1.67,0,2.68,1.28,3.77,4.47l12.15-4.46C108.8,68.63,103.31,65.46,98,65.46Z"/><path class="cls-1" d="M159.49,173.37c-4.12-1.12-8-2.27-11.7-3.42V130.3L128,127.57v35.67c-4-1.47-7.9-3-11.7-4.6V72.77c0-17.34,11.62-21.14,19.3-23.65,1-.34,2-.66,2.89-1a23.75,23.75,0,0,1,8.3-1.65c8.07,0,12.71,5.48,12.71,15ZM142.74,56.5a15.35,15.35,0,0,0-4.52,1l-.45.15c-5,1.62-9.78,4-9.78,13.23v45.59l19.8,1.83V68.06C147.79,62.05,147.18,56.5,142.74,56.5Z"/><path class="cls-2" d="M146.78,47.49c7.55,0,11.71,5,11.71,14V172.06c-3.39-.94-6.64-1.89-9.7-2.84V129.43l-1.72-.24-17.81-2.46-2.27-.31V161.8c-3.29-1.24-6.54-2.52-9.7-3.82V72.77c0-16.61,10.76-20.13,18.61-22.7,1-.34,2-.66,2.93-1a22.94,22.94,0,0,1,7.95-1.58m2,71.94V68.06c0-6.53-.73-12.56-6-12.56a16.33,16.33,0,0,0-4.83,1.09l-.45.15C132.39,58.4,127,61,127,70.92v46.5l1.81.17,17.81,1.64,2.18.2m-2-73.94a24.91,24.91,0,0,0-8.65,1.71c-7.38,2.76-22.84,5.14-22.84,25.57v86.54q6.72,2.81,13.7,5.37v-36l17.8,2.45v39.52c4.37,1.38,9,2.71,13.7,4V61.53c0-11.06-5.85-16-13.71-16Zm0,71.75L129,115.6V70.92c0-8.46,4.16-10.67,9.09-12.28a16.73,16.73,0,0,1,4.66-1.14c2.56,0,4,2.17,4,10.56v49.18Z"/><path class="cls-1" d="M183.61,179.16c-2.7-.56-9.51-2.07-11.7-2.59V38.6l.74-.17c3.62-.83,7.35-1.69,11-2.42Z"/><path class="cls-2" d="M182.61,37.24V177.93c-2.78-.6-7.39-1.62-9.7-2.15V39.4c3.2-.74,6.49-1.5,9.7-2.16m2-2.45c-4.49.88-9.16,2-13.7,3V177.34c0,.08,13.3,3,13.69,3h0V34.79Z"/><path class="cls-1" d="M242.13,186.33c-3.75-.15-7.42-.35-10.94-.6V52.11c0-8.65-.26-13.16-5.66-13.16l-.68,0c-2.32.14-10.27,1-12.43,1.48-1.8.44-1.8,2.68-1.79,3.89V183.66c-4.23-.55-8.07-1.11-11.7-1.7V35.51c0-1.66.22-1.72,1.25-2l.15,0c3.58-1.12,12.14-2.27,22.9-3.08,2.48-.18,4.56-.27,6.35-.27,9.86,0,12.55,2.44,12.55,11.35Z"/><path class="cls-2" d="M229.58,31.07c9.88,0,11.55,2.58,11.55,10.35V185.29c-3-.13-6-.3-8.94-.49V52.11c0-7.91,0-14.16-6.66-14.16l-.73,0c-2.35.14-10.41,1-12.62,1.51-2.56.63-2.56,3.59-2.55,4.86V182.52c-3.45-.46-6.65-.93-9.7-1.42V35.51a4.36,4.36,0,0,1,.08-.94l.46-.15.16-.05c3.51-1.09,12-2.23,22.67-3,2.46-.18,4.52-.27,6.28-.27m0-2c-1.89,0-4,.1-6.43.28-10,.75-19.15,1.88-23.12,3.11-1.27.4-2.1.55-2.1,3V182.8q6.76,1.13,13.7,2V44.5c0-1.08-.06-2.81,1-3.08,2-.49,9.77-1.3,12.25-1.45l.62,0c4.21,0,4.66,3,4.66,12.16V186.66c4.32.32,8.64.55,12.94.72v-146c0-9.29-3-12.35-13.55-12.35Z"/><path class="cls-1" d="M263.52,38.19h-1c-1,0-5.23-.08-9.08-.08-1.94,0-3.46,0-4.54,0V28.68c1.67,0,3.46-.05,5.33-.05,12,0,25.49.66,36.3,1.77v9.35c-3.68-.35-12.2-1-14.33-1.07h-1V186c-2.64.15-7.62.37-11.69.48Z"/><path class="cls-2" d="M254.25,29.63c11.64,0,24.68.62,35.3,1.67v7.36c-4.09-.38-11.31-1-13.33-1h-2V185c-2.51.13-6.3.3-9.69.4V37.21l-2,0c-1.16,0-5.43-.08-9.1-.08l-3.54,0V29.66c1.38,0,2.83,0,4.33,0m0-2c-2.24,0-4.37,0-6.33.07V39.18c1.13-.06,3.25-.08,5.54-.08,3.76,0,8,0,9.06.08V187.5c4.75-.11,11.24-.41,13.69-.57V39.68c2.3,0,12.55.88,15.34,1.18V29.49c-11.82-1.25-26.08-1.86-37.3-1.86Z"/><path class="cls-1" d="M309.06,181.76c-4.47,0-7.68-.89-9.79-2.74-2.3-2-3.41-5.2-3.41-9.77V49.66c0-11.56,4.74-16.49,15.86-16.49a51.22,51.22,0,0,1,5.49.32C329.57,34.78,337.8,38,337.8,49.77v3.15H327.15V50c0-6.48-3.61-7.34-9.51-8.2a14.66,14.66,0,0,0-2.22-.17c-5.07,0-7.86,3-7.86,8.37V163.39c.1,6.85,4.16,9.28,7.93,9.28h0a10.75,10.75,0,0,0,1.67-.14l1-.16c3.59-.54,9-1.36,9-7.76v-4.86H337.8V166c0,9.83-7.38,12.95-20.12,15A54.78,54.78,0,0,1,309.06,181.76Z"/><path class="cls-2" d="M311.72,34.17a51.73,51.73,0,0,1,5.38.31c14.36,1.5,19.7,5.64,19.7,15.29v2.15h-8.65V50c0-7.14-4.1-8.27-10.36-9.19a16.69,16.69,0,0,0-2.37-.18,8.57,8.57,0,0,0-6.61,2.55A9.74,9.74,0,0,0,306.56,50V163.42c.09,6.23,3.59,10.25,8.93,10.25a11.48,11.48,0,0,0,1.83-.15l1-.16c3.69-.56,9.88-1.49,9.82-8.76v-3.84h8.65V166c0,9.17-6.78,12-19.28,14a54,54,0,0,1-8.46.79c-8.66,0-12.2-3.33-12.2-11.51V49.66c0-11,4.31-15.49,14.86-15.49m0-2c-9.8,0-16.86,3.65-16.86,17.49V169.25c0,10,5.26,13.51,14.2,13.51a55.93,55.93,0,0,0,8.78-.81c12.08-1.95,21-5,21-16v-7.2H326.15v5.86c.05,6.07-5.39,6.3-9.16,6.92a8.61,8.61,0,0,1-1.5.13c-3.81,0-6.85-2.61-6.93-8.28V50c0-4.74,2.31-7.37,6.86-7.37a14.22,14.22,0,0,1,2.08.16c6.19.91,8.65,1.8,8.65,7.21v3.92H338.8V49.77c0-12.62-9.21-16-21.49-17.28a54.86,54.86,0,0,0-5.59-.32Z"/><path class="cls-1" d="M356,171.09c-8.17,0-13-5.27-13-14.09V61.19c0-10.23,5.61-16.85,14.31-16.85a21.82,21.82,0,0,1,6.34,1l3.24,1c10.42,3.08,18.65,5.51,18.65,16.48v86.66c0,13.37-8.2,16-20.63,19.88l-1.68.53A23.94,23.94,0,0,1,356,171.09Zm4.82-118.54c-4.27,0-6.82,3.43-6.82,9.18v94.88c0,3.64,1.45,5.41,4.42,5.41h0a23.43,23.43,0,0,0,5.75-1.11l.83-.23c6.71-1.84,10.41-2.85,10.41-13.21V64.12c0-8.69-4.8-9.7-10.87-11l-1.68-.36A10,10,0,0,0,360.86,52.55Z"/><path class="cls-2" d="M357.31,45.34h0a20.89,20.89,0,0,1,6.05,1c1.09.34,2.18.66,3.25,1,11.45,3.38,17.93,5.77,17.93,15.52v86.66c0,12.64-7.5,15-19.93,18.92l-1.68.53A23,23,0,0,1,356,170.1c-7.65,0-12-4.78-12-13.11V61.19c0-9.63,5.22-15.85,13.31-15.85M358.46,163a23.39,23.39,0,0,0,6-1.15l.82-.22c7.33-2,11.15-3.56,11.15-14.18V64.12c0-9.5-5.4-10.64-11.66-12l-1.67-.36a10.64,10.64,0,0,0-2.26-.25c-4.82,0-7.82,3.9-7.82,10.18v94.88c0,5.3,2.95,6.41,5.42,6.41M357.31,43.34c-9.6,0-15.31,7.54-15.31,17.85V157c0,9.79,5.71,15.11,14,15.11a25.06,25.06,0,0,0,7.5-1.26c13.42-4.26,23-6.63,23-21.36V62.82c0-12.89-10.56-14.72-22.6-18.41a22.57,22.57,0,0,0-6.63-1.07ZM358.46,161c-2.22,0-3.42-1.11-3.42-4.41V61.73c0-4.75,1.83-8.18,5.82-8.18a8.1,8.1,0,0,1,1.83.21c7.1,1.57,11.76,1.79,11.76,10.36h0v83.35c0,10-3.37,10.5-10.5,12.48a23.23,23.23,0,0,1-5.49,1.07Z"/><path class="cls-1" d="M394.92,59.29c0-.31,0-.79,1.41-.79,5.52,0,19.88,7.74,23.14,9.65l.56.33C433.19,76.21,438.12,79.1,438.12,91v44.95c-3.72,2.53-6.61,4.33-10.31,6.43V99c0-13.7-.31-16.43-10.09-21.32l-.14-.07c-3.34-1.67-6.5-3.25-8.62-3.25a2.72,2.72,0,0,0-2.89,2.94v76.26l-11.15,4.87Z"/><path class="cls-2" d="M396.33,57.5v2c4.92,0,18.31,7,22.63,9.51l.56.34c13.16,7.72,17.6,10.33,17.6,21.62v44.42c-3,2-5.45,3.57-8.31,5.23V99c0-13.67-.39-17.09-10.64-22.22l-.14-.06c-3.6-1.81-6.71-3.36-9.07-3.36a3.71,3.71,0,0,0-3.89,3.91V152.9l-9.15,4V59.53a2.15,2.15,0,0,1,.41,0v-2m0,0c-1.5,0-2.41.52-2.41,1.79V160l13.15-5.74V77.33c.05-1.43.75-2,1.89-2,1.91,0,5,1.58,8.31,3.21,9.32,4.66,9.54,7,9.54,20.43v45.07a144,144,0,0,0,12.31-7.61V91c0-12.61-5.5-15.66-19.15-23.68-3.41-2-17.85-9.79-23.64-9.79Z"/><path class="cls-3" d="M469.77,115.22a10.64,10.64,0,0,0,14.31.65l-15-15A10.65,10.65,0,0,0,469.77,115.22Z"/><path class="cls-4" d="M484.88,100.1a10.68,10.68,0,0,0-13.67-1.18l14.86,14.85A10.68,10.68,0,0,0,484.88,100.1Z"/><path class="cls-4" d="M486.07,113.77,471.21,98.92a10.61,10.61,0,0,0-1.44,1.18c-.25.25-.44.54-.66.8l15,15a9.87,9.87,0,0,0,.8-.65A10.19,10.19,0,0,0,486.07,113.77Z"/><path class="cls-5" d="M486.07,113.77,471.21,98.92a10.61,10.61,0,0,0-1.44,1.18c-.25.25-.44.54-.66.8l15,15a9.87,9.87,0,0,0,.8-.65A10.19,10.19,0,0,0,486.07,113.77Z"/><path class="cls-6" d="M19.77,115.22a10.64,10.64,0,0,0,14.31.65l-15-15A10.65,10.65,0,0,0,19.77,115.22Z"/><path class="cls-7" d="M34.88,100.1a10.68,10.68,0,0,0-13.67-1.18l14.86,14.85A10.68,10.68,0,0,0,34.88,100.1Z"/><path class="cls-7" d="M36.07,113.77,21.21,98.92a10.61,10.61,0,0,0-1.44,1.18c-.25.25-.44.54-.66.8l15,15a9.87,9.87,0,0,0,.8-.65A10.19,10.19,0,0,0,36.07,113.77Z"/><path class="cls-8" d="M36.07,113.77,21.21,98.92a10.61,10.61,0,0,0-1.44,1.18c-.25.25-.44.54-.66.8l15,15a9.87,9.87,0,0,0,.8-.65A10.19,10.19,0,0,0,36.07,113.77Z"/></svg>